<?xml version="1.0" encoding="utf-8"?>
<!-- Generator: Adobe Illustrator 25.0.1, SVG Export Plug-In . SVG Version: 6.00 Build 0)  -->
<svg version="1.1" id="Capa_1" xmlns="http://www.w3.org/2000/svg" xmlns:xlink="http://www.w3.org/1999/xlink" x="0px" y="0px"
	 viewBox="0 0 400 400" style="enable-background:new 0 0 400 400;" xml:space="preserve">
<style type="text/css">
	.st0{fill:#9B1B21;}
	.st1{fill:#454545;}
	.st2{fill:#294D9D;}
	.st3{fill:none;}
	.st4{fill:#626261;}
	.st5{fill:#989999;}
</style>
<g>
	<g>
		<g>
			<path class="st0" d="M195.45,97.67v90.85c0,3.22-2.61,5.84-5.83,5.85l-16.48,0.09h-0.11c-0.34-0.03-0.61-0.32-0.61-0.66
				c0-0.06,0.01-0.12,0.02-0.18c0.08-0.84,0.13-1.7,0.13-2.57c0-13.84-11.22-25.07-25.06-25.07c-13.85,0-25.07,11.23-25.07,25.07
				c0,0.98,0.05,1.94,0.16,2.88c0.01,0.05,0.01,0.09,0.01,0.14c0,0.34-0.27,0.63-0.61,0.66h-0.11l-19.48,0.11
				c-3.24,0.01-5.88-2.61-5.88-5.86v-32.12c0-7.63,4.07-14.67,10.68-18.48l79.46-45.78C190.57,90.35,195.45,93.17,195.45,97.67z"/>
			<circle class="st0" cx="208.55" cy="142.33" r="20.34"/>
		</g>
		<g>
			<path class="st1" d="M203.57,302.23l0-90.85c0-3.22,2.61-5.84,5.83-5.85l16.48-0.09h0.11c0.34,0.03,0.61,0.32,0.61,0.66
				c0,0.06-0.01,0.12-0.02,0.18c-0.08,0.84-0.13,1.7-0.13,2.57c0,13.84,11.22,25.07,25.06,25.07c13.85,0,25.07-11.23,25.07-25.07
				c0-0.98-0.05-1.94-0.16-2.88c-0.01-0.05-0.01-0.09-0.01-0.14c0-0.34,0.27-0.63,0.61-0.66h0.11l19.48-0.11
				c3.24-0.01,5.88,2.61,5.88,5.86l0,32.12c0,7.63-4.07,14.67-10.68,18.48l-79.46,45.78C208.45,309.55,203.57,306.73,203.57,302.23z
				"/>
			<circle class="st1" cx="191.85" cy="257.42" r="20.34"/>
		</g>
		<path class="st2" d="M97.56,205.06"/>
		<line class="st3" x1="190.97" y1="205.44" x2="97.27" y2="205.44"/>
		<g>
			<g>
				<path class="st4" d="M166.75,257.42c0,13.97,11.33,25.3,25.3,25.3c0.88,0,1.74-0.05,2.59-0.13c0.05-0.01,0.09-0.01,0.14-0.01
					c0.34,0,0.63,0.27,0.66,0.61v18.36c0,5.12-5.54,8.31-9.97,5.74l-85.81-49.83c-2.05-1.19-3.31-3.37-3.31-5.74v-39.64
					c0-3.66,2.97-6.63,6.63-6.63h85.83c3.67,0,6.64,2.97,6.64,6.64v18.06c0,1.16-0.98,2.05-2.14,1.99
					c-0.42-0.02-0.84-0.03-1.26-0.03C178.08,232.11,166.75,243.44,166.75,257.42z"/>
			</g>
			<g>
				<circle class="st4" cx="147.52" cy="191.4" r="20.34"/>
			</g>
		</g>
		<g>
			<g>
				<path class="st5" d="M233.25,142.58c0-13.97-11.33-25.3-25.3-25.3c-0.88,0-1.74,0.05-2.59,0.13c-0.05,0.01-0.09,0.01-0.14,0.01
					c-0.34,0-0.63-0.27-0.66-0.61V98.45c0-5.12,5.54-8.31,9.97-5.74l85.81,49.83c2.05,1.19,3.31,3.37,3.31,5.74v39.64
					c0,3.66-2.97,6.63-6.63,6.63h-85.83c-3.67,0-6.64-2.97-6.64-6.64v-18.06c0-1.16,0.98-2.05,2.14-1.99
					c0.42,0.02,0.84,0.03,1.26,0.03C221.92,167.89,233.25,156.56,233.25,142.58z"/>
			</g>
			<g>
				<circle class="st5" cx="251.75" cy="208.44" r="20.34"/>
			</g>
		</g>
	</g>
</g>
<g>
	<g>
		<g>
			<path class="st0" d="M-164.87-375.9v90.85c0,3.22-2.61,5.84-5.83,5.85l-16.48,0.09h-0.11c-0.34-0.03-0.61-0.32-0.61-0.66
				c0-0.06,0.01-0.12,0.02-0.18c0.08-0.84,0.13-1.7,0.13-2.57c0-13.84-11.22-25.07-25.06-25.07c-13.85,0-25.07,11.23-25.07,25.07
				c0,0.98,0.05,1.94,0.16,2.88c0.01,0.05,0.01,0.09,0.01,0.14c0,0.34-0.27,0.63-0.61,0.66h-0.11l-19.48,0.11
				c-3.24,0.01-5.88-2.61-5.88-5.86v-32.12c0-7.63,4.07-14.67,10.68-18.48l79.46-45.78C-169.75-383.22-164.87-380.4-164.87-375.9z"
				/>
			<circle class="st0" cx="-151.77" cy="-331.24" r="20.34"/>
		</g>
		<g>
			<path class="st1" d="M-156.75-171.34l0-90.85c0-3.22,2.61-5.84,5.83-5.85l16.48-0.09h0.11c0.34,0.03,0.61,0.32,0.61,0.66
				c0,0.06-0.01,0.12-0.02,0.18c-0.08,0.84-0.13,1.7-0.13,2.57c0,13.84,11.22,25.07,25.06,25.07c13.85,0,25.07-11.23,25.07-25.07
				c0-0.98-0.05-1.94-0.16-2.88c-0.01-0.05-0.01-0.09-0.01-0.14c0-0.34,0.27-0.63,0.61-0.66h0.11l19.48-0.11
				c3.24-0.01,5.88,2.61,5.88,5.86l0,32.12c0,7.63-4.07,14.67-10.68,18.48l-79.46,45.78C-151.87-164.02-156.75-166.84-156.75-171.34
				z"/>
			<circle class="st1" cx="-168.46" cy="-216.15" r="20.34"/>
		</g>
		<path class="st2" d="M-262.75-268.51"/>
		<line class="st3" x1="-169.35" y1="-268.12" x2="-263.05" y2="-268.12"/>
		<g>
			<g>
				<path class="st4" d="M-193.57-216.15c0,13.97,11.33,25.3,25.3,25.3c0.88,0,1.74-0.05,2.59-0.13c0.05-0.01,0.09-0.01,0.14-0.01
					c0.34,0,0.63,0.27,0.66,0.61v18.36c0,5.12-5.54,8.31-9.97,5.74l-85.81-49.83c-2.05-1.19-3.31-3.37-3.31-5.74v-39.64
					c0-3.66,2.97-6.63,6.63-6.63h85.83c3.67,0,6.64,2.97,6.64,6.64v18.06c0,1.16-0.98,2.05-2.14,1.99
					c-0.42-0.02-0.84-0.03-1.26-0.03C-182.24-241.46-193.57-230.13-193.57-216.15z"/>
			</g>
			<g>
				<circle class="st4" cx="-212.8" cy="-282.17" r="20.34"/>
			</g>
		</g>
		<g>
			<g>
				<path class="st5" d="M-127.07-330.99c0-13.97-11.33-25.3-25.3-25.3c-0.88,0-1.74,0.05-2.59,0.13c-0.05,0.01-0.09,0.01-0.14,0.01
					c-0.34,0-0.63-0.27-0.66-0.61v-18.36c0-5.12,5.54-8.31,9.97-5.74l85.81,49.83c2.05,1.19,3.31,3.37,3.31,5.74v39.64
					c0,3.66-2.97,6.63-6.63,6.63h-85.83c-3.67,0-6.64-2.97-6.64-6.64v-18.06c0-1.16,0.98-2.05,2.14-1.99
					c0.42,0.02,0.84,0.03,1.26,0.03C-138.4-305.68-127.07-317.01-127.07-330.99z"/>
			</g>
			<g>
				<circle class="st5" cx="-108.57" cy="-265.12" r="20.34"/>
			</g>
		</g>
	</g>
	<g>
		<g>
			<g>
				<g>
					
						<text transform="matrix(1 0 0 1 -31.966 -219.0374)" style="fill:#353435; font-family:'BookmanOldStyle-Bold'; font-size:17.0348px; letter-spacing:1;">JUSTICIA PRONTA, cumplida y amable</text>
				</g>
			</g>
			
				<text transform="matrix(1 0 0 1 -36.3889 -290.1829)" style="fill:#343434; font-family:'Montserrat-Bold'; font-size:50.0058px;">UNIDAD</text>
			<g>
				
					<text transform="matrix(1 0 0 1 -36.5744 -244.6282)" style="fill:#991B21; font-family:'Montserrat-Bold'; font-size:50.0058px;">DE FLAGRANCIA</text>
			</g>
		</g>
	</g>
</g>
</svg>
