<?xml version="1.0" encoding="UTF-8"?>
<svg xmlns="http://www.w3.org/2000/svg" xmlns:xlink="http://www.w3.org/1999/xlink" width="281pt" height="177.5pt" viewBox="0 0 281 177.5" version="1.1">
<defs>
<clipPath id="clip1">
  <path d="M 172 155 L 200 155 L 200 177.5 L 172 177.5 Z M 172 155 "/>
</clipPath>
<clipPath id="clip2">
  <path d="M 195 147 L 222 147 L 222 177.5 L 195 177.5 Z M 195 147 "/>
</clipPath>
</defs>
<g id="surface1">
<path style=" stroke:none;fill-rule:evenodd;fill:rgb(48.631287%,45.483398%,40.380859%);fill-opacity:1;" d="M 129.160156 46.085938 L 137.453125 46.085938 L 137.445313 80.828125 L 137.445313 87.140625 L 104.921875 87.140625 L 104.914063 80.828125 L 129.15625 80.828125 Z M 99.195313 68.890625 L 115.308594 68.886719 L 115.296875 52.488281 L 99.195313 52.492188 Z M 123.441406 75.285156 L 99.195313 75.285156 L 99.191406 87.140625 L 90.894531 87.136719 L 90.90625 71.695313 L 90.914063 65.296875 L 90.90625 52.488281 L 90.90625 46.085938 L 123.441406 46.085938 L 123.441406 75.289063 Z M 123.441406 75.285156 "/>
<path style=" stroke:none;fill-rule:evenodd;fill:rgb(48.631287%,45.483398%,40.380859%);fill-opacity:1;" d="M 181.898438 -0.0742188 L 190.175781 -0.0742188 L 190.175781 40.984375 L 181.890625 40.984375 L 157.644531 40.976563 L 157.652344 34.667969 L 181.890625 34.667969 L 181.894531 -0.0742188 Z M 151.9375 22.726563 L 168.039063 22.726563 L 168.027344 6.332031 L 151.921875 6.320313 Z M 176.160156 29.128906 L 151.921875 29.128906 L 151.921875 40.96875 L 143.628906 40.984375 L 143.628906 25.535156 L 143.648438 19.125 L 143.628906 6.320313 L 143.636719 -0.0742188 L 176.171875 -0.0742188 Z M 176.160156 29.128906 "/>
<path style=" stroke:none;fill-rule:evenodd;fill:rgb(63.084412%,13.330078%,12.156677%);fill-opacity:1;" d="M 181.886719 46.089844 L 190.171875 46.09375 L 190.171875 87.144531 L 157.648438 87.144531 L 157.648438 80.828125 L 181.878906 80.828125 L 181.886719 46.085938 Z M 151.921875 68.894531 L 168.03125 68.894531 L 168.039063 52.484375 L 151.929688 52.496094 Z M 176.171875 75.304688 L 151.921875 75.289063 L 151.921875 87.144531 L 143.632813 87.144531 L 143.628906 71.703125 L 143.628906 65.289063 L 143.636719 52.496094 L 143.636719 46.089844 L 176.171875 46.089844 Z M 176.171875 75.304688 "/>
<path style=" stroke:none;fill-rule:evenodd;fill:rgb(63.084412%,13.330078%,12.156677%);fill-opacity:1;" d="M 129.171875 -0.0859375 L 137.441406 -0.0859375 L 137.441406 40.980469 L 129.164063 40.972656 L 104.925781 40.972656 L 104.925781 34.660156 L 129.164063 34.660156 Z M 99.203125 22.730469 L 115.304688 22.722656 L 115.300781 6.316406 L 99.195313 6.316406 Z M 123.4375 29.125 L 99.210938 29.125 L 99.203125 40.972656 L 90.910156 40.972656 L 90.910156 19.128906 L 90.914063 6.316406 L 90.910156 -0.0859375 L 99.203125 -0.078125 L 123.4375 -0.078125 Z M 123.4375 29.125 "/>
<path style=" stroke:none;fill-rule:evenodd;fill:rgb(48.631287%,45.483398%,40.380859%);fill-opacity:1;" d="M 7.75 120.40625 C 8.304688 120.53125 9.257813 120.734375 10.070313 120.734375 C 14.742188 120.734375 17.738281 117.710938 17.738281 113.585938 C 17.738281 110.402344 16.402344 107.265625 10.710938 107.265625 C 9.71875 107.265625 8.777344 107.265625 7.75 107.429688 Z M 7.75 128.324219 C 7.75 130.609375 8.476563 131.46875 11.179688 131.46875 L 12.59375 131.46875 L 12.59375 132.242188 L 0.726563 132.242188 L 0.726563 131.46875 L 1.320313 131.46875 C 3.550781 131.46875 4.199219 131.015625 4.199219 129.101563 L 4.199219 109.792969 C 4.199219 108.285156 3.671875 107.628906 2.183594 107.628906 L 0.0390625 107.628906 L 0.0390625 106.851563 C 1.238281 106.816406 3.332031 106.6875 5.433594 106.605469 C 7.539063 106.523438 9.585938 106.492188 10.753906 106.492188 C 19.714844 106.492188 21.765625 110.570313 21.765625 113.710938 C 21.765625 118.492188 17.738281 121.507813 11.394531 121.507813 C 10.105469 121.507813 9.039063 121.425781 7.75 121.179688 Z M 7.75 128.324219 "/>
<path style=" stroke:none;fill-rule:evenodd;fill:rgb(48.631287%,45.483398%,40.380859%);fill-opacity:1;" d="M 35.488281 111.941406 C 29.363281 111.941406 26.925781 117.382813 26.925781 121.363281 C 26.925781 127.570313 31.347656 131.949219 36.957031 131.949219 C 42.632813 131.949219 45.339844 127.167969 45.339844 122.460938 C 45.339844 116.292969 41.230469 111.941406 35.488281 111.941406 Z M 36.222656 132.773438 C 29.394531 132.773438 23.652344 128.597656 23.652344 122.390625 C 23.652344 115.792969 28.976563 111.113281 36.394531 111.113281 C 42.980469 111.113281 48.617188 115.390625 48.617188 121.363281 C 48.617188 128.070313 42.980469 132.773438 36.222656 132.773438 Z M 36.222656 132.773438 "/>
<path style=" stroke:none;fill-rule:evenodd;fill:rgb(48.631287%,45.483398%,40.380859%);fill-opacity:1;" d="M 55.996094 129.789063 C 55.996094 131.144531 56.105469 131.613281 58.855469 131.613281 C 63.519531 131.613281 65.464844 130.984375 67.628906 128.921875 C 68.914063 127.730469 70.523438 125.175781 70.523438 121.757813 C 70.523438 119.3125 69.785156 116.585938 67.730469 114.636719 C 66.128906 113.105469 63.660156 111.945313 58.777344 111.945313 C 57.355469 111.945313 56.410156 112.046875 55.996094 112.078125 Z M 53.105469 114.925781 C 53.105469 112.777344 52.515625 112.246094 50.460938 112.246094 L 49.769531 112.246094 L 49.769531 111.609375 C 51.050781 111.546875 52.757813 111.476563 54.679688 111.414063 C 56.589844 111.351563 58.714844 111.3125 60.523438 111.3125 C 69.71875 111.3125 73.789063 115.761719 73.789063 121.234375 C 73.789063 126.242188 69.71875 132.238281 60.902344 132.238281 L 49.769531 132.238281 L 49.769531 131.613281 L 50.355469 131.613281 C 52.242188 131.613281 53.105469 131.117188 53.105469 129.195313 Z M 53.105469 114.925781 "/>
<path style=" stroke:none;fill-rule:evenodd;fill:rgb(48.631287%,45.483398%,40.380859%);fill-opacity:1;" d="M 90.640625 124.785156 L 89.980469 124.785156 C 89.710938 122.425781 89.042969 122.164063 87.609375 122.164063 L 81.730469 122.164063 L 81.730469 129.226563 C 81.730469 130.746094 82.320313 131.046875 83.609375 131.046875 L 88.972656 131.046875 C 91.410156 131.046875 92.140625 130.152344 93.015625 127.300781 L 93.644531 127.300781 L 93.082031 132.242188 L 74.589844 132.242188 L 74.589844 131.613281 L 75.570313 131.613281 C 78.355469 131.613281 78.839844 130.886719 78.839844 128.898438 L 78.839844 114.902344 C 78.839844 113.039063 78.382813 112.246094 76.050781 112.246094 L 75.292969 112.246094 L 75.292969 111.617188 L 92.003906 111.617188 L 92.273438 116.226563 L 91.648438 116.226563 C 91.195313 113.410156 90.332031 112.808594 89.082031 112.808594 L 81.730469 112.808594 L 81.730469 120.96875 L 87.960938 120.96875 C 89.21875 120.96875 89.808594 120.402344 89.980469 118.476563 L 90.640625 118.476563 Z M 90.640625 124.785156 "/>
<path style=" stroke:none;fill-rule:evenodd;fill:rgb(48.631287%,45.483398%,40.380859%);fill-opacity:1;" d="M 100.878906 122.890625 C 101.714844 122.988281 102.230469 122.960938 103.035156 122.960938 C 106.902344 122.960938 109.445313 121.402344 109.445313 117.414063 C 109.445313 114.332031 107.980469 111.941406 102.617188 111.941406 C 101.960938 111.941406 101.503906 111.941406 100.878906 112.011719 Z M 100.878906 129.128906 C 100.878906 131.121094 101.714844 131.613281 103.664063 131.613281 L 104.464844 131.613281 L 104.464844 132.242188 L 94.613281 132.242188 L 94.613281 131.613281 L 95.207031 131.613281 C 97.253906 131.613281 97.984375 131.082031 97.984375 128.863281 L 97.984375 114.898438 C 97.984375 112.84375 97.402344 112.242188 95.378906 112.242188 L 94.613281 112.242188 L 94.613281 111.613281 C 95.453125 111.613281 97.570313 111.480469 98.996094 111.417969 C 100.421875 111.347656 101.121094 111.316406 103.390625 111.316406 C 109.835938 111.316406 112.714844 113.839844 112.714844 117.21875 C 112.714844 119.703125 110.941406 121.800781 108.089844 122.585938 C 109.378906 123.554688 110.414063 124.480469 112.054688 126.042969 L 114.808594 128.667969 C 116.859375 130.617188 118.984375 131.847656 121.664063 132.011719 L 121.664063 132.609375 C 115.566406 132.875 114.003906 131.613281 110.90625 128.667969 L 108.601563 126.46875 C 107.074219 125.007813 105.855469 124.050781 105.019531 123.527344 C 104.152344 123.554688 103.59375 123.582031 102.648438 123.582031 C 101.886719 123.582031 101.4375 123.554688 100.878906 123.527344 Z M 100.878906 129.128906 "/>
<path style=" stroke:none;fill-rule:evenodd;fill:rgb(48.631287%,45.483398%,40.380859%);fill-opacity:1;" d="M 140.140625 128.042969 C 140.140625 136.242188 136.621094 141.757813 131.273438 141.757813 C 128.914063 141.757813 127.113281 140.820313 127.113281 139.554688 C 127.113281 138.691406 127.796875 137.925781 128.652344 137.925781 C 130.109375 137.925781 131.273438 139.835938 133.066406 139.835938 C 135.128906 139.835938 136.585938 138.359375 136.585938 133.835938 L 136.585938 112.042969 C 136.585938 108.449219 136.195313 107.628906 133.109375 107.628906 L 132.640625 107.628906 L 132.640625 106.851563 L 143.480469 106.851563 L 143.480469 107.628906 C 140.742188 107.714844 140.140625 108.449219 140.140625 110.609375 Z M 140.140625 128.042969 "/>
<path style=" stroke:none;fill-rule:evenodd;fill:rgb(48.631287%,45.483398%,40.380859%);fill-opacity:1;" d="M 170.386719 111.613281 L 170.386719 112.246094 C 168.046875 112.277344 167.214844 113.175781 167.214844 115.296875 L 167.214844 124.25 C 167.214844 128.367188 164.464844 132.773438 156.910156 132.773438 C 150.257813 132.773438 146.847656 129.160156 146.847656 124.417969 L 146.847656 114.738281 C 146.847656 112.609375 146.214844 112.277344 143.851563 112.246094 L 143.851563 111.613281 L 152.800781 111.613281 L 152.800781 112.246094 L 152.492188 112.246094 C 150.578125 112.246094 149.734375 112.742188 149.734375 114.660156 L 149.734375 123.890625 C 149.734375 128.367188 152.492188 131.046875 157.675781 131.046875 C 161.613281 131.046875 165.617188 129.488281 165.617188 123.851563 L 165.617188 116.125 C 165.617188 112.945313 165.09375 112.378906 162.195313 112.246094 L 162.195313 111.613281 Z M 170.386719 111.613281 "/>
<path style=" stroke:none;fill-rule:evenodd;fill:rgb(48.631287%,45.483398%,40.380859%);fill-opacity:1;" d="M 176.339844 129.789063 C 176.339844 131.144531 176.4375 131.613281 179.195313 131.613281 C 183.855469 131.613281 185.808594 130.984375 187.964844 128.921875 C 189.257813 127.730469 190.859375 125.175781 190.859375 121.757813 C 190.859375 119.3125 190.128906 116.585938 188.070313 114.636719 C 186.472656 113.105469 184.003906 111.945313 179.121094 111.945313 C 177.695313 111.945313 176.753906 112.046875 176.339844 112.078125 Z M 173.441406 114.925781 C 173.441406 112.777344 172.859375 112.246094 170.796875 112.246094 L 170.105469 112.246094 L 170.105469 111.609375 C 171.394531 111.546875 173.105469 111.476563 175.019531 111.414063 C 176.933594 111.351563 179.050781 111.3125 180.859375 111.3125 C 190.0625 111.3125 194.132813 115.761719 194.132813 121.234375 C 194.132813 126.242188 190.0625 132.238281 181.246094 132.238281 L 170.105469 132.238281 L 170.105469 131.613281 L 170.695313 131.613281 C 172.574219 131.613281 173.441406 131.117188 173.441406 129.195313 Z M 173.441406 114.925781 "/>
<path style=" stroke:none;fill-rule:evenodd;fill:rgb(48.631287%,45.483398%,40.380859%);fill-opacity:1;" d="M 204.851563 132.242188 L 196.398438 132.242188 L 196.398438 131.609375 C 198.554688 131.511719 199.011719 130.984375 199.011719 128.761719 L 199.011719 114.632813 C 199.011719 112.839844 198.34375 112.34375 196.398438 112.242188 L 196.398438 111.613281 L 204.851563 111.613281 L 204.851563 112.242188 C 202.660156 112.242188 201.894531 112.703125 201.894531 114.929688 L 201.894531 128.996094 C 201.894531 130.949219 202.449219 131.609375 204.851563 131.609375 Z M 204.851563 132.242188 "/>
<path style=" stroke:none;fill-rule:evenodd;fill:rgb(48.631287%,45.483398%,40.380859%);fill-opacity:1;" d="M 227.65625 117.058594 C 226.515625 113.96875 223.515625 111.945313 219.71875 111.945313 C 213.90625 111.945313 210.28125 115.964844 210.28125 121.53125 C 210.28125 127.527344 214.8125 131.941406 220.101563 131.941406 C 222.851563 131.941406 226.234375 131.046875 228.59375 127.035156 L 229.261719 127.035156 C 228.804688 128.53125 227.859375 130.582031 227.035156 131.882813 C 224.804688 131.578125 223.269531 132.777344 219.160156 132.777344 C 212.09375 132.777344 207.007813 128.335938 207.007813 122.199219 C 207.007813 115.757813 212.234375 111.117188 219.511719 111.117188 C 223.902344 111.117188 225.78125 112.441406 226.859375 112.441406 C 227.238281 112.441406 227.414063 112.347656 227.484375 112.246094 L 228.011719 112.246094 L 228.316406 117.058594 Z M 227.65625 117.058594 "/>
<path style=" stroke:none;fill-rule:evenodd;fill:rgb(48.631287%,45.483398%,40.380859%);fill-opacity:1;" d="M 239.390625 132.242188 L 230.933594 132.242188 L 230.933594 131.609375 C 233.089844 131.511719 233.546875 130.984375 233.546875 128.761719 L 233.546875 114.632813 C 233.546875 112.839844 232.878906 112.34375 230.933594 112.242188 L 230.933594 111.613281 L 239.390625 111.613281 L 239.390625 112.242188 C 237.195313 112.242188 236.429688 112.703125 236.429688 114.929688 L 236.429688 128.996094 C 236.429688 130.949219 236.988281 131.609375 239.390625 131.609375 Z M 239.390625 132.242188 "/>
<path style=" stroke:none;fill-rule:evenodd;fill:rgb(48.631287%,45.483398%,40.380859%);fill-opacity:1;" d="M 250.8125 113.902344 L 247.851563 121.628906 L 253.867188 121.628906 Z M 247.253906 123.089844 L 245.246094 128.292969 C 245.003906 128.925781 244.546875 129.921875 244.546875 130.390625 C 244.546875 131.285156 245.449219 131.613281 247.363281 131.613281 L 247.925781 131.613281 L 247.925781 132.246094 L 239.878906 132.246094 L 239.878906 131.613281 C 242.144531 131.589844 242.527344 131.214844 243.640625 128.332031 L 249.972656 111.851563 L 249.671875 111.113281 L 252.691406 111.113281 L 259.964844 129.523438 C 260.664063 131.285156 261.390625 131.613281 263.132813 131.613281 L 263.132813 132.246094 L 253.5625 132.246094 L 253.5625 131.613281 L 254.464844 131.613281 C 256.445313 131.613281 257.183594 131.414063 257.183594 130.484375 C 257.183594 129.953125 256.933594 129.457031 256.800781 129.121094 L 254.464844 123.089844 Z M 247.253906 123.089844 "/>
<path style=" stroke:none;fill-rule:evenodd;fill:rgb(48.631287%,45.483398%,40.380859%);fill-opacity:1;" d="M 278.355469 132.242188 L 262.789063 132.242188 L 262.789063 131.609375 L 263.933594 131.609375 C 265.539063 131.609375 266.132813 131.113281 266.132813 129.425781 L 266.132813 114.734375 C 266.132813 112.972656 265.570313 112.242188 263.378906 112.242188 L 262.886719 112.242188 L 262.886719 111.613281 L 273.164063 111.613281 L 273.164063 112.242188 L 271.871094 112.242188 C 269.613281 112.242188 269.019531 112.476563 269.019531 114.53125 L 269.019531 129.820313 C 269.019531 130.71875 269.40625 131.050781 270.410156 131.050781 L 275.527344 131.050781 C 277.585938 131.050781 278.214844 130.285156 280.414063 127.398438 L 281.03125 127.398438 Z M 278.355469 132.242188 "/>
<path style=" stroke:none;fill-rule:evenodd;fill:rgb(48.631287%,45.483398%,40.380859%);fill-opacity:1;" d="M 63.027344 174.390625 C 63.027344 175.746094 63.128906 176.214844 65.882813 176.214844 C 70.546875 176.214844 72.503906 175.582031 74.660156 173.527344 C 75.953125 172.328125 77.550781 169.773438 77.550781 166.363281 C 77.550781 163.910156 76.816406 161.1875 74.761719 159.234375 C 73.160156 157.707031 70.6875 156.542969 65.8125 156.542969 C 64.386719 156.542969 63.441406 156.648438 63.027344 156.679688 Z M 60.132813 159.53125 C 60.132813 157.375 59.542969 156.84375 57.488281 156.84375 L 56.804688 156.84375 L 56.804688 156.207031 C 58.089844 156.144531 59.796875 156.082031 61.714844 156.011719 C 63.628906 155.949219 65.742188 155.910156 67.554688 155.910156 C 76.753906 155.910156 80.828125 160.363281 80.828125 165.832031 C 80.828125 170.839844 76.753906 176.835938 67.933594 176.835938 L 56.804688 176.835938 L 56.804688 176.214844 L 57.394531 176.214844 C 59.269531 176.214844 60.132813 175.714844 60.132813 173.792969 Z M 60.132813 159.53125 "/>
<path style=" stroke:none;fill-rule:evenodd;fill:rgb(48.631287%,45.483398%,40.380859%);fill-opacity:1;" d="M 97.671875 169.382813 L 97.015625 169.382813 C 96.734375 167.023438 96.070313 166.765625 94.640625 166.765625 L 88.761719 166.765625 L 88.761719 173.824219 C 88.761719 175.34375 89.355469 175.652344 90.640625 175.652344 L 96.003906 175.652344 C 98.441406 175.652344 99.167969 174.75 100.039063 171.898438 L 100.664063 171.898438 L 100.113281 176.847656 L 81.621094 176.847656 L 81.621094 176.214844 L 82.59375 176.214844 C 85.386719 176.214844 85.871094 175.484375 85.871094 173.496094 L 85.871094 159.5 C 85.871094 157.636719 85.414063 156.84375 83.085938 156.84375 L 82.320313 156.84375 L 82.320313 156.214844 L 99.03125 156.214844 L 99.308594 160.824219 L 98.683594 160.824219 C 98.230469 158.007813 97.355469 157.40625 96.105469 157.40625 L 88.761719 157.40625 L 88.761719 165.566406 L 95.003906 165.566406 C 96.246094 165.566406 96.839844 165 97.015625 163.074219 L 97.671875 163.074219 Z M 97.671875 169.382813 "/>
<path style=" stroke:none;fill-rule:evenodd;fill:rgb(48.631287%,45.483398%,40.380859%);fill-opacity:1;" d="M 117.242188 176.839844 L 101.671875 176.839844 L 101.671875 176.207031 L 102.820313 176.207031 C 104.429688 176.207031 105.019531 175.710938 105.019531 174.027344 L 105.019531 159.332031 C 105.019531 157.570313 104.460938 156.839844 102.269531 156.839844 L 101.773438 156.839844 L 101.773438 156.214844 L 112.054688 156.214844 L 112.054688 156.839844 L 110.757813 156.839844 C 108.503906 156.839844 107.910156 157.074219 107.910156 159.136719 L 107.910156 174.417969 C 107.910156 175.320313 108.289063 175.648438 109.304688 175.648438 L 114.421875 175.648438 C 116.46875 175.648438 117.101563 174.882813 119.300781 171.996094 L 119.914063 171.996094 Z M 117.242188 176.839844 "/>
<path style=" stroke:none;fill-rule:evenodd;fill:rgb(48.631287%,45.483398%,40.380859%);fill-opacity:1;" d="M 138.679688 165.003906 C 139.238281 165.132813 140.179688 165.332031 140.996094 165.332031 C 145.671875 165.332031 148.675781 162.3125 148.675781 158.183594 C 148.675781 155.007813 147.339844 151.863281 141.632813 151.863281 C 140.648438 151.863281 139.714844 151.863281 138.679688 152.03125 Z M 138.679688 172.921875 C 138.679688 175.210938 139.40625 176.066406 142.109375 176.066406 L 143.519531 176.066406 L 143.519531 176.839844 L 131.648438 176.839844 L 131.648438 176.066406 L 132.253906 176.066406 C 134.476563 176.066406 135.128906 175.613281 135.128906 173.703125 L 135.128906 154.390625 C 135.128906 152.882813 134.601563 152.226563 133.113281 152.226563 L 130.96875 152.226563 L 130.96875 151.453125 C 132.171875 151.414063 134.265625 151.289063 136.367188 151.210938 C 138.46875 151.121094 140.523438 151.089844 141.683594 151.089844 C 150.640625 151.089844 152.695313 155.171875 152.695313 158.3125 C 152.695313 163.089844 148.675781 166.109375 142.324219 166.109375 C 141.046875 166.109375 139.964844 166.023438 138.679688 165.777344 Z M 138.679688 172.921875 "/>
<path style=" stroke:none;fill-rule:evenodd;fill:rgb(48.631287%,45.483398%,40.380859%);fill-opacity:1;" d="M 168.894531 169.382813 L 168.234375 169.382813 C 167.949219 167.023438 167.296875 166.765625 165.863281 166.765625 L 159.976563 166.765625 L 159.976563 173.824219 C 159.976563 175.34375 160.570313 175.652344 161.859375 175.652344 L 167.21875 175.652344 C 169.65625 175.652344 170.390625 174.75 171.257813 171.898438 L 171.886719 171.898438 L 171.328125 176.847656 L 152.84375 176.847656 L 152.84375 176.214844 L 153.820313 176.214844 C 156.601563 176.214844 157.089844 175.484375 157.089844 173.496094 L 157.089844 159.5 C 157.089844 157.636719 156.632813 156.84375 154.300781 156.84375 L 153.539063 156.84375 L 153.539063 156.214844 L 170.257813 156.214844 L 170.53125 160.824219 L 169.902344 160.824219 C 169.445313 158.007813 168.578125 157.40625 167.328125 157.40625 L 159.976563 157.40625 L 159.976563 165.566406 L 166.214844 165.566406 C 167.46875 165.566406 168.050781 165 168.234375 163.074219 L 168.894531 163.074219 Z M 168.894531 169.382813 "/>
<g clip-path="url(#clip1)" clip-rule="nonzero">
<path style=" stroke:none;fill-rule:evenodd;fill:rgb(48.631287%,45.483398%,40.380859%);fill-opacity:1;" d="M 179.128906 167.484375 C 179.96875 167.589844 180.488281 167.554688 181.28125 167.554688 C 185.148438 167.554688 187.691406 166.003906 187.691406 162.015625 C 187.691406 158.9375 186.230469 156.539063 180.867188 156.539063 C 180.203125 156.539063 179.746094 156.539063 179.128906 156.613281 Z M 179.128906 173.730469 C 179.128906 175.722656 179.96875 176.210938 181.921875 176.210938 L 182.714844 176.210938 L 182.714844 176.835938 L 172.855469 176.835938 L 172.855469 176.210938 L 173.453125 176.210938 C 175.507813 176.210938 176.242188 175.683594 176.242188 173.457031 L 176.242188 159.5 C 176.242188 157.445313 175.648438 156.84375 173.628906 156.84375 L 172.855469 156.84375 L 172.855469 156.214844 C 173.695313 156.214844 175.824219 156.074219 177.257813 156.011719 C 178.671875 155.949219 179.367188 155.917969 181.628906 155.917969 C 188.085938 155.917969 190.96875 158.433594 190.96875 161.820313 C 190.96875 164.304688 189.191406 166.398438 186.335938 167.191406 C 187.628906 168.152344 188.671875 169.082031 190.308594 170.644531 L 193.058594 173.261719 C 195.113281 175.214844 197.230469 176.449219 199.921875 176.613281 L 199.921875 177.210938 C 193.8125 177.476563 192.261719 176.210938 189.152344 173.261719 L 186.859375 171.070313 C 185.324219 169.609375 184.109375 168.648438 183.269531 168.121094 C 182.402344 168.152344 181.847656 168.183594 180.910156 168.183594 C 180.140625 168.183594 179.675781 168.152344 179.128906 168.121094 Z M 179.128906 173.730469 "/>
</g>
<g clip-path="url(#clip2)" clip-rule="nonzero">
<path style=" stroke:none;fill-rule:evenodd;fill:rgb(48.631287%,45.483398%,40.380859%);fill-opacity:1;" d="M 205.171875 153.597656 L 208.378906 149.378906 C 209.074219 148.484375 209.910156 147.917969 210.601563 147.917969 C 211.234375 147.917969 211.679688 148.324219 211.679688 148.886719 C 211.679688 149.515625 210.984375 150.179688 209.316406 151.238281 L 205.628906 153.597656 Z M 221.886719 156.214844 L 221.886719 156.847656 C 219.550781 156.878906 218.714844 157.773438 218.714844 159.894531 L 218.714844 168.855469 C 218.714844 172.96875 215.960938 177.371094 208.402344 177.371094 C 201.757813 177.371094 198.347656 173.761719 198.347656 169.019531 L 198.347656 159.332031 C 198.347656 157.210938 197.714844 156.878906 195.355469 156.847656 L 195.355469 156.214844 L 204.300781 156.214844 L 204.300781 156.847656 L 203.992188 156.847656 C 202.070313 156.847656 201.234375 157.34375 201.234375 159.269531 L 201.234375 168.484375 C 201.234375 172.96875 203.992188 175.648438 209.175781 175.648438 C 213.113281 175.648438 217.117188 174.089844 217.117188 168.453125 L 217.117188 160.726563 C 217.117188 157.546875 216.59375 156.972656 213.710938 156.847656 L 213.710938 156.214844 Z M 221.886719 156.214844 "/>
</g>
</g>
</svg>
